<svg id='Fuel_Pump_24' width='24' height='24' viewBox='0 0 24 24' xmlns='http://www.w3.org/2000/svg' xmlns:xlink='http://www.w3.org/1999/xlink'><rect width='24' height='24' stroke='none' fill='#000000' opacity='0'/>


<g transform="matrix(0.42 0 0 0.42 12 12)" >
<g style="" >
<g transform="matrix(1 0 0 1 13.94 -7.98)" >
<path style="stroke: none; stroke-width: 1; stroke-dasharray: none; stroke-linecap: butt; stroke-dashoffset: 0; stroke-linejoin: miter; stroke-miterlimit: 4; fill: rgb(171,171,171); fill-rule: nonzero; opacity: 1;" transform=" translate(-37.94, -16.02)" d="M 36.998 18.968 L 36.751 18.533 C 36.771 18.521 38.757999999999996 17.32 38.617999999999995 13.091000000000001 L 39.117999999999995 13.075000000000001 C 39.268 17.633 37.091 18.915 36.998 18.968 z" stroke-linecap="round" />
</g>
<g transform="matrix(1 0 0 1 13.35 6.87)" >
<path style="stroke: none; stroke-width: 1; stroke-dasharray: none; stroke-linecap: butt; stroke-dashoffset: 0; stroke-linejoin: miter; stroke-miterlimit: 4; fill: rgb(71,71,70); fill-rule: nonzero; opacity: 1;" transform=" translate(-37.35, -30.87)" d="M 38.281 41.733 C 37.339 41.733 36.411 41.468999999999994 35.661 40.949 C 34.396 40.071999999999996 33.794000000000004 38.586999999999996 34.008 36.876 C 35.015 28.820999999999998 34.172000000000004 27.756999999999998 31.691000000000003 26.950999999999997 L 32.309000000000005 25.048999999999996 C 36.545 26.424999999999997 36.956 29.408999999999995 35.992000000000004 37.123999999999995 C 35.870000000000005 38.099999999999994 36.150000000000006 38.85399999999999 36.801 39.306999999999995 C 37.57 39.837999999999994 38.74 39.879 39.649 39.40599999999999 C 40.266 39.083 41 38.403 41 37 C 41 35.203 40.556 33.588 40.087 31.878 C 39.552 29.933 39 27.921 39 25.417 L 39 20 L 41 20 L 41 25.417 C 41 27.651000000000003 41.516 29.53 42.015 31.348000000000003 C 42.5 33.11 43 34.934 43 37 C 43 38.849 42.117 40.371 40.577 41.177 C 39.865 41.55 39.068 41.733 38.281 41.733 z" stroke-linecap="round" />
</g>
<g transform="matrix(1 0 0 1 13.32 6.83)" >
<path style="stroke: none; stroke-width: 1; stroke-dasharray: none; stroke-linecap: butt; stroke-dashoffset: 0; stroke-linejoin: miter; stroke-miterlimit: 4; fill: rgb(79,79,78); fill-rule: nonzero; opacity: 1;" transform=" translate(-37.32, -30.83)" d="M 38.281 41.665 C 37.352 41.665 36.439 41.405 35.699999999999996 40.893 C 34.455999999999996 40.03 33.864999999999995 38.571 34.074999999999996 36.884 C 35.083 28.823 34.245 27.709 31.711999999999996 26.886000000000003 L 32.288 25.113000000000003 C 36.459999999999994 26.468000000000004 36.891 29.382000000000005 35.925 37.115 C 35.8 38.116 36.089999999999996 38.895 36.763 39.362 C 37.553 39.908 38.748999999999995 39.951 39.681999999999995 39.465 C 40.30199999999999 39.141000000000005 41.068999999999996 38.445 41.068999999999996 36.999 C 41.068999999999996 35.193000000000005 40.623999999999995 33.573 40.153 31.859 C 39.62 29.918000000000003 39.068999999999996 27.911 39.068999999999996 25.416000000000004 L 39.068999999999996 20 L 40.93299999999999 20 L 40.93299999999999 25.417 C 40.93299999999999 27.661 41.449999999999996 29.544 41.95099999999999 31.366 C 42.43599999999999 33.131 42.93299999999999 34.943 42.93299999999999 37 C 42.93299999999999 38.822 42.062999999999995 40.323 40.54599999999999 41.116 C 39.843 41.484 39.057 41.665 38.281 41.665 z" stroke-linecap="round" />
</g>
<g transform="matrix(1 0 0 1 13.3 6.8)" >
<path style="stroke: none; stroke-width: 1; stroke-dasharray: none; stroke-linecap: butt; stroke-dashoffset: 0; stroke-linejoin: miter; stroke-miterlimit: 4; fill: rgb(87,87,86); fill-rule: nonzero; opacity: 1;" transform=" translate(-37.3, -30.8)" d="M 38.281 41.598 C 37.366 41.598 36.466 41.342 35.739 40.838 C 34.515 39.989000000000004 33.934999999999995 38.556 34.143 36.894 C 35.152 28.826 34.319 27.662 31.733 26.823 L 32.267 25.18 C 36.376000000000005 26.515 36.826 29.359 35.857 37.109 C 35.729 38.135000000000005 36.03 38.939 36.724 39.421 C 37.535 39.982 38.757999999999996 40.027 39.712999999999994 39.528 C 40.33599999999999 39.202 41.13699999999999 38.491 41.13699999999999 37.001999999999995 C 41.13699999999999 35.187 40.690999999999995 33.562999999999995 40.218999999999994 31.843999999999994 C 39.687 29.907999999999994 39.13699999999999 27.904999999999994 39.13699999999999 25.418999999999993 L 39.13699999999999 20 L 40.86399999999999 20 L 40.86399999999999 25.417 C 40.86399999999999 27.67 41.38299999999999 29.558 41.88399999999999 31.384 C 42.36999999999999 33.152 42.86399999999999 34.952 42.86399999999999 37 C 42.86399999999999 38.796 42.00699999999999 40.275 40.51399999999999 41.056 C 39.821 41.419 39.046 41.598 38.281 41.598 z" stroke-linecap="round" />
</g>
<g transform="matrix(1 0 0 1 13.27 6.77)" >
<path style="stroke: none; stroke-width: 1; stroke-dasharray: none; stroke-linecap: butt; stroke-dashoffset: 0; stroke-linejoin: miter; stroke-miterlimit: 4; fill: rgb(95,95,94); fill-rule: nonzero; opacity: 1;" transform=" translate(-37.27, -30.77)" d="M 38.281 41.53 C 37.379999999999995 41.53 36.494 41.278 35.778 40.782000000000004 C 34.574 39.947 34.006 38.541000000000004 34.211 36.902 C 35.22 28.827 34.391999999999996 27.614 31.753999999999998 26.757 L 32.245999999999995 25.244 C 36.291 26.558 36.76 29.332 35.788999999999994 37.099000000000004 C 35.657 38.150000000000006 35.96999999999999 38.979000000000006 36.684999999999995 39.475 C 37.517999999999994 40.051 38.766 40.097 39.74399999999999 39.587 C 40.370999999999995 39.259 41.20399999999999 38.532000000000004 41.20399999999999 37.001000000000005 C 41.20399999999999 35.176 40.75699999999999 33.548 40.28399999999999 31.825000000000003 C 39.75299999999999 29.893000000000004 39.20399999999999 27.895000000000003 39.20399999999999 25.418000000000003 L 39.20399999999999 20 L 40.794999999999995 20 L 40.794999999999995 25.417 C 40.794999999999995 27.679000000000002 41.315 29.572000000000003 41.81699999999999 31.402 C 42.303999999999995 33.173 42.794999999999995 34.961 42.794999999999995 37 C 42.794999999999995 38.77 41.952 40.226 40.480999999999995 40.996 C 39.799 41.354 39.035 41.53 38.281 41.53 z" stroke-linecap="round" />
</g>
<g transform="matrix(1 0 0 1 13.25 6.73)" >
<path style="stroke: none; stroke-width: 1; stroke-dasharray: none; stroke-linecap: butt; stroke-dashoffset: 0; stroke-linejoin: miter; stroke-miterlimit: 4; fill: rgb(103,103,102); fill-rule: nonzero; opacity: 1;" transform=" translate(-37.25, -30.73)" d="M 38.28 41.462 C 37.393 41.462 36.521 41.214000000000006 35.816 40.725 C 34.632000000000005 39.904 34.076 38.524 34.278000000000006 36.910000000000004 C 35.288000000000004 28.828000000000003 34.465 27.566000000000003 31.775000000000006 26.692000000000004 L 32.224000000000004 25.309000000000005 C 36.206 26.602000000000004 36.694 29.306000000000004 35.721000000000004 37.09100000000001 C 35.586000000000006 38.16700000000001 35.910000000000004 39.02100000000001 36.645 39.531000000000006 C 37.499 40.12200000000001 38.773 40.17000000000001 39.775000000000006 39.647000000000006 C 40.40500000000001 39.31700000000001 41.272000000000006 38.574000000000005 41.272000000000006 37.00000000000001 C 41.272000000000006 35.166000000000004 40.824000000000005 33.534000000000006 40.349000000000004 31.805000000000007 C 39.819 29.877000000000006 39.272000000000006 27.884000000000007 39.272000000000006 25.41700000000001 L 39.272000000000006 20 L 40.727000000000004 20 L 40.727000000000004 25.417 C 40.727000000000004 27.688000000000002 41.248000000000005 29.585 41.752 31.42 C 42.239000000000004 33.194 42.727000000000004 34.97 42.727000000000004 37 C 42.727000000000004 38.744 41.897000000000006 40.178 40.45 40.935 C 39.777 41.288 39.024 41.462 38.28 41.462 z" stroke-linecap="round" />
</g>
<g transform="matrix(1 0 0 1 13.23 6.7)" >
<path style="stroke: none; stroke-width: 1; stroke-dasharray: none; stroke-linecap: butt; stroke-dashoffset: 0; stroke-linejoin: miter; stroke-miterlimit: 4; fill: rgb(111,111,110); fill-rule: nonzero; opacity: 1;" transform=" translate(-37.23, -30.7)" d="M 38.28 41.394 C 37.407000000000004 41.394 36.549 41.15 35.855000000000004 40.669 C 34.691 39.861999999999995 34.147000000000006 38.509 34.346000000000004 36.918 C 35.357000000000006 28.83 34.539 27.517 31.796000000000003 26.627 L 32.203 25.374 C 36.121 26.647 36.629000000000005 29.279999999999998 35.653000000000006 37.083 C 35.51500000000001 38.184 35.85000000000001 39.062999999999995 36.60600000000001 39.588 C 37.48100000000001 40.194 38.78200000000001 40.244 39.80600000000001 39.708 C 40.44000000000001 39.376 41.33900000000001 38.617999999999995 41.33900000000001 37.001 C 41.33900000000001 35.158 40.88900000000001 33.521 40.414000000000016 31.787999999999997 C 39.88600000000002 29.864999999999995 39.33900000000001 27.875999999999998 39.33900000000001 25.417999999999996 L 39.33900000000001 20 L 40.65700000000001 20 L 40.65700000000001 25.417 C 40.65700000000001 27.698 41.17900000000001 29.599000000000004 41.68400000000001 31.438000000000002 C 42.17200000000001 33.214000000000006 42.65700000000001 34.979 42.65700000000001 37 C 42.65700000000001 38.718 41.84000000000001 40.13 40.41700000000001 40.875 C 39.755 41.223 39.013 41.394 38.28 41.394 z" stroke-linecap="round" />
</g>
<g transform="matrix(1 0 0 1 13.21 6.66)" >
<path style="stroke: none; stroke-width: 1; stroke-dasharray: none; stroke-linecap: butt; stroke-dashoffset: 0; stroke-linejoin: miter; stroke-miterlimit: 4; fill: rgb(119,119,119); fill-rule: nonzero; opacity: 1;" transform=" translate(-37.21, -30.66)" d="M 38.28 41.326 C 37.421 41.326 36.576 41.086 35.895 40.613 C 34.751000000000005 39.82 34.219 38.493 34.414 36.926 C 35.426 28.831000000000003 34.612 27.469 31.818 26.561 L 32.183 25.437 C 36.038 26.689 36.564 29.252000000000002 35.587 37.072 C 35.446000000000005 38.198 35.791000000000004 39.102000000000004 36.569 39.641000000000005 C 37.466 40.26200000000001 38.792 40.313 39.84 39.766000000000005 C 40.477000000000004 39.43300000000001 41.410000000000004 38.65800000000001 41.410000000000004 36.999 C 41.410000000000004 35.147000000000006 40.959 33.506 40.482000000000006 31.768 C 39.955000000000005 29.849 39.410000000000004 27.865000000000002 39.410000000000004 25.416 L 39.410000000000004 20 L 40.592000000000006 20 L 40.592000000000006 25.417 C 40.592000000000006 27.707 41.11600000000001 29.613 41.62200000000001 31.456000000000003 C 42.111000000000004 33.235 42.592000000000006 34.988 42.592000000000006 37 C 42.592000000000006 38.691 41.78900000000001 40.082 40.388000000000005 40.815 C 39.733 41.157 39.002 41.326 38.28 41.326 z" stroke-linecap="round" />
</g>
<g transform="matrix(1 0 0 1 13.18 6.63)" >
<path style="stroke: none; stroke-width: 1; stroke-dasharray: none; stroke-linecap: butt; stroke-dashoffset: 0; stroke-linejoin: miter; stroke-miterlimit: 4; fill: rgb(127,127,127); fill-rule: nonzero; opacity: 1;" transform=" translate(-37.18, -30.63)" d="M 38.28 41.258 C 37.435 41.258 36.604 41.022000000000006 35.934 40.557 C 34.809999999999995 39.778 34.288999999999994 38.477000000000004 34.482 36.935 C 35.495 28.833000000000002 34.686 27.422000000000004 31.839 26.497 L 32.162 25.503 C 35.952999999999996 26.734 36.498999999999995 29.227 35.519 37.065 C 35.375 38.216 35.731 39.144999999999996 36.53 39.699 C 37.448 40.335 38.801 40.388 39.871 39.827999999999996 C 40.512 39.492999999999995 41.478 38.702 41.478 36.99999999999999 C 41.478 35.13799999999999 41.026 33.492999999999995 40.548 31.750999999999994 C 40.022 29.836999999999993 39.478 27.856999999999992 39.478 25.416999999999994 L 39.478 20 L 40.523 20 L 40.523 25.417 C 40.523 27.716 41.048 29.627000000000002 41.55500000000001 31.474000000000004 C 42.04500000000001 33.256 42.52300000000001 34.99700000000001 42.52300000000001 37 C 42.52300000000001 38.665 41.73300000000001 40.034 40.35600000000001 40.754 C 39.711 41.092 38.99 41.258 38.28 41.258 z" stroke-linecap="round" />
</g>
<g transform="matrix(1 0 0 1 13.16 6.59)" >
<path style="stroke: none; stroke-width: 1; stroke-dasharray: none; stroke-linecap: butt; stroke-dashoffset: 0; stroke-linejoin: miter; stroke-miterlimit: 4; fill: rgb(135,135,135); fill-rule: nonzero; opacity: 1;" transform=" translate(-37.16, -30.59)" d="M 38.279 41.19 C 37.447 41.19 36.631 40.958 35.972 40.501 C 34.869 39.736 34.359 38.461999999999996 34.549 36.943 C 35.563 28.833999999999996 34.759 27.373999999999995 31.86 26.432 L 32.141 25.567999999999998 C 35.869 26.778 36.433 29.200999999999997 35.452 37.057 C 35.305 38.234 35.672 39.187000000000005 36.492 39.755 C 37.431 40.406000000000006 38.809999999999995 40.461000000000006 39.903999999999996 39.888000000000005 C 40.547999999999995 39.551 41.547 38.745000000000005 41.547 37.00000000000001 C 41.547 35.129000000000005 41.093999999999994 33.480000000000004 40.614 31.733000000000008 C 40.089 29.823000000000008 39.547 27.848000000000006 39.547 25.41700000000001 L 39.547 20 L 40.455999999999996 20 L 40.455999999999996 25.417 C 40.455999999999996 27.725 40.982 29.64 41.49099999999999 31.493000000000002 C 41.980999999999995 33.278 42.455999999999996 35.007000000000005 42.455999999999996 37 C 42.455999999999996 38.639 41.678999999999995 39.985 40.324999999999996 40.694 C 39.689 41.026 38.979 41.19 38.279 41.19 z" stroke-linecap="round" />
</g>
<g transform="matrix(1 0 0 1 13.13 6.56)" >
<path style="stroke: none; stroke-width: 1; stroke-dasharray: none; stroke-linecap: butt; stroke-dashoffset: 0; stroke-linejoin: miter; stroke-miterlimit: 4; fill: rgb(143,143,143); fill-rule: nonzero; opacity: 1;" transform=" translate(-37.13, -30.56)" d="M 38.279 41.122 C 37.461000000000006 41.122 36.659000000000006 40.894 36.011 40.445 C 34.928000000000004 39.693 34.43 38.446 34.617000000000004 36.952 C 35.63100000000001 28.836999999999996 34.833000000000006 27.326 31.881000000000004 26.366999999999997 L 32.120000000000005 25.632999999999996 C 35.784000000000006 26.822999999999997 36.368 29.174999999999997 35.38400000000001 37.047999999999995 C 35.23400000000001 38.24999999999999 35.61200000000001 39.227999999999994 36.452000000000005 39.81099999999999 C 37.413000000000004 40.47599999999999 38.81700000000001 40.532999999999994 39.934000000000005 39.94899999999999 C 40.58200000000001 39.60999999999999 41.614000000000004 38.78799999999999 41.614000000000004 36.99999999999999 C 41.614000000000004 35.11999999999999 41.160000000000004 33.465999999999994 40.679 31.714999999999993 C 40.156 29.80999999999999 39.614000000000004 27.83899999999999 39.614000000000004 25.416999999999994 L 39.614000000000004 20 L 40.38700000000001 20 L 40.38700000000001 25.417 C 40.38700000000001 27.734 40.91400000000001 29.654000000000003 41.42400000000001 31.511000000000003 C 41.915000000000006 33.298 42.38700000000001 35.016000000000005 42.38700000000001 37 C 42.38700000000001 38.613 41.62400000000001 39.937 40.293000000000006 40.633 C 39.667 40.961 38.968 41.122 38.279 41.122 z" stroke-linecap="round" />
</g>
<g transform="matrix(1 0 0 1 13.11 6.53)" >
<path style="stroke: none; stroke-width: 1; stroke-dasharray: none; stroke-linecap: butt; stroke-dashoffset: 0; stroke-linejoin: miter; stroke-miterlimit: 4; fill: rgb(151,151,151); fill-rule: nonzero; opacity: 1;" transform=" translate(-37.11, -30.53)" d="M 38.279 41.054 C 37.475 41.054 36.68600000000001 40.830000000000005 36.050000000000004 40.389 C 34.987 39.651 34.501000000000005 38.431000000000004 34.684000000000005 36.96 C 35.699000000000005 28.838 34.905 27.278 31.901000000000003 26.302 L 32.097 25.698 C 35.698 26.867 36.301 29.149 35.314 37.04 C 35.16 38.266999999999996 35.549 39.269 36.411 39.867 C 37.393 40.547 38.824 40.605999999999995 39.964 40.009 C 40.615 39.668 41.68 38.83 41.68 37 C 41.68 35.111 41.225 33.453 40.742 31.697 C 40.22 29.796 39.678999999999995 27.83 39.678999999999995 25.416999999999998 L 39.678999999999995 20 L 40.315 20 L 40.315 25.417 C 40.315 27.744 40.844 29.668000000000003 41.355 31.529000000000003 C 41.846999999999994 33.319 42.315 35.025000000000006 42.315 37 C 42.315 38.587 41.565 39.889 40.257 40.573 C 39.645 40.896 38.957 41.054 38.279 41.054 z" stroke-linecap="round" />
</g>
<g transform="matrix(1 0 0 1 13.09 6.49)" >
<path style="stroke: none; stroke-width: 1; stroke-dasharray: none; stroke-linecap: butt; stroke-dashoffset: 0; stroke-linejoin: miter; stroke-miterlimit: 4; fill: rgb(159,159,159); fill-rule: nonzero; opacity: 1;" transform=" translate(-37.09, -30.49)" d="M 38.279 40.986 C 37.489000000000004 40.986 36.714000000000006 40.766 36.089000000000006 40.333 C 35.04600000000001 39.609 34.571000000000005 38.415 34.752 36.969 C 35.768 28.840000000000003 34.979 27.231 31.923000000000002 26.238 L 32.077000000000005 25.762999999999998 C 35.614000000000004 26.910999999999998 36.236000000000004 29.122999999999998 35.248000000000005 37.032 C 35.09100000000001 38.284 35.49100000000001 39.31099999999999 36.374 39.924 C 37.377 40.619 38.834 40.68 39.997 40.07 C 40.652 39.727 41.75 38.874 41.75 37.001 C 41.75 35.102999999999994 41.293 33.44 40.81 31.68 C 40.289 29.784 39.75 27.822 39.75 25.418 L 39.75 20 L 40.25 20 L 40.25 25.417 C 40.25 27.753 40.78 29.682000000000002 41.292 31.547 C 41.785 33.34 42.25 35.034 42.25 37 C 42.25 38.561 41.513 39.841 40.229 40.513 C 39.623 40.83 38.946 40.986 38.279 40.986 z" stroke-linecap="round" />
</g>
<g transform="matrix(1 0 0 1 11 -14.8)" >
<polygon style="stroke: none; stroke-width: 1; stroke-dasharray: none; stroke-linecap: butt; stroke-dashoffset: 0; stroke-linejoin: miter; stroke-miterlimit: 4; fill: rgb(155,155,155); fill-rule: nonzero; opacity: 1;" points="1.36,1.9 -1.99,-0.43 -1.36,-1.9 1.99,0.43 " />
</g>
<g transform="matrix(1 0 0 1 -2 -10)" >
<linearGradient id="SVGID_xYakGh1tLx1ZzfU_mpdTNa_12" gradientUnits="userSpaceOnUse" gradientTransform="matrix(1 0 0 1 0 0)" x1="22.555" y1="19.137" x2="19.594" y2="-8.278">
<stop offset="0%" style="stop-color:rgb(153,153,153);stop-opacity: 1"/>
<stop offset="100%" style="stop-color:rgb(255,255,255);stop-opacity: 1"/>
</linearGradient>
<path style="stroke: none; stroke-width: 1; stroke-dasharray: none; stroke-linecap: butt; stroke-dashoffset: 0; stroke-linejoin: miter; stroke-miterlimit: 4; fill: url(#SVGID_xYakGh1tLx1ZzfU_mpdTNa_12); fill-rule: nonzero; opacity: 1;" transform=" translate(-22, -14)" d="M 34.344 24 L 9.656 24 C 9.294 24 9 23.706 9 23.344 L 9 4.656 C 9 4.294 9.294 4 9.656 4 L 34.344 4 C 34.706 4 35 4.294 35 4.656 L 35 23.343999999999998 C 35 23.706 34.706 24 34.344 24 z" stroke-linecap="round" />
</g>
<g transform="matrix(1 0 0 1 -2 -9.5)" >
<linearGradient id="SVGID_xYakGh1tLx1ZzfU_mpdTNb_13" gradientUnits="userSpaceOnUse" gradientTransform="matrix(1 0 0 1 -22 -14.5)" x1="22" y1="2.667" x2="22" y2="26.667">
<stop offset="0%" style="stop-color:rgb(102,102,102);stop-opacity: 1"/>
<stop offset="99.9%" style="stop-color:rgb(23,23,20);stop-opacity: 1"/>
</linearGradient>
<rect style="stroke: none; stroke-width: 1; stroke-dasharray: none; stroke-linecap: butt; stroke-dashoffset: 0; stroke-linejoin: miter; stroke-miterlimit: 4; fill: url(#SVGID_xYakGh1tLx1ZzfU_mpdTNb_13); fill-rule: nonzero; opacity: 1;" x="-11" y="-9.5" rx="0" ry="0" width="22" height="19" />
</g>
<g transform="matrix(1 0 0 1 -2 10)" >
<linearGradient id="SVGID_xYakGh1tLx1ZzfU_mpdTNc_14" gradientUnits="userSpaceOnUse" gradientTransform="matrix(1 0 0 1 -22 -34)" x1="22" y1="53" x2="22" y2="29">
<stop offset="0%" style="stop-color:rgb(137,197,53);stop-opacity: 1"/>
<stop offset="100%" style="stop-color:rgb(50,135,72);stop-opacity: 1"/>
</linearGradient>
<polygon style="stroke: none; stroke-width: 1; stroke-dasharray: none; stroke-linecap: butt; stroke-dashoffset: 0; stroke-linejoin: miter; stroke-miterlimit: 4; fill: url(#SVGID_xYakGh1tLx1ZzfU_mpdTNc_14); fill-rule: nonzero; opacity: 1;" points="9,10 -9,10 -11,-10 11,-10 " />
</g>
<g transform="matrix(1 0 0 1 -2 3)" >
<linearGradient id="SVGID_xYakGh1tLx1ZzfU_mpdTNd_15" gradientUnits="userSpaceOnUse" gradientTransform="matrix(1 0 0 1 -22 -27)" x1="22" y1="28.8" x2="22" y2="22.197">
<stop offset="0%" style="stop-color:rgb(11,113,217);stop-opacity: 1"/>
<stop offset="100%" style="stop-color:rgb(38,71,116);stop-opacity: 1"/>
</linearGradient>
<polygon style="stroke: none; stroke-width: 1; stroke-dasharray: none; stroke-linecap: butt; stroke-dashoffset: 0; stroke-linejoin: miter; stroke-miterlimit: 4; fill: url(#SVGID_xYakGh1tLx1ZzfU_mpdTNd_15); fill-rule: nonzero; opacity: 1;" points="10.5,3 11,-3 -11,-3 -10.5,3 " />
</g>
<g transform="matrix(1 0 0 1 -2 -5.5)" >
<linearGradient id="SVGID_xYakGh1tLx1ZzfU_mpdTNe_16" gradientUnits="userSpaceOnUse" gradientTransform="matrix(-1 0 0 -1 24 19.5)" x1="24" y1="16.386" x2="24" y2="22.702">
<stop offset="0%" style="stop-color:rgb(253,216,53);stop-opacity: 1"/>
<stop offset="100%" style="stop-color:rgb(249,168,37);stop-opacity: 1"/>
</linearGradient>
<polygon style="stroke: none; stroke-width: 1; stroke-dasharray: none; stroke-linecap: butt; stroke-dashoffset: 0; stroke-linejoin: miter; stroke-miterlimit: 4; fill: url(#SVGID_xYakGh1tLx1ZzfU_mpdTNe_16); fill-rule: nonzero; opacity: 1;" points="-9,-2.5 9,-2.5 9,2.5 -9,2.5 " />
</g>
<g transform="matrix(1 0 0 1 -6.5 -14.5)" >
<linearGradient id="SVGID_xYakGh1tLx1ZzfU_mpdTNf_17" gradientUnits="userSpaceOnUse" gradientTransform="matrix(1 0 0 1 -17.5 -9.5)" x1="17.5" y1="7.632" x2="17.5" y2="11.421">
<stop offset="0%" style="stop-color:rgb(153,153,153);stop-opacity: 1"/>
<stop offset="100%" style="stop-color:rgb(255,255,255);stop-opacity: 1"/>
</linearGradient>
<rect style="stroke: none; stroke-width: 1; stroke-dasharray: none; stroke-linecap: butt; stroke-dashoffset: 0; stroke-linejoin: miter; stroke-miterlimit: 4; fill: url(#SVGID_xYakGh1tLx1ZzfU_mpdTNf_17); fill-rule: nonzero; opacity: 1;" x="-4.5" y="-1.5" rx="0" ry="0" width="9" height="3" />
</g>
<g transform="matrix(1 0 0 1 3 -14.5)" >
<linearGradient id="SVGID_xYakGh1tLx1ZzfU_mpdTNg_18" gradientUnits="userSpaceOnUse" gradientTransform="matrix(1 0 0 1 -27 -9.5)" x1="27" y1="7.632" x2="27" y2="11.421">
<stop offset="0%" style="stop-color:rgb(153,153,153);stop-opacity: 1"/>
<stop offset="100%" style="stop-color:rgb(255,255,255);stop-opacity: 1"/>
</linearGradient>
<rect style="stroke: none; stroke-width: 1; stroke-dasharray: none; stroke-linecap: butt; stroke-dashoffset: 0; stroke-linejoin: miter; stroke-miterlimit: 4; fill: url(#SVGID_xYakGh1tLx1ZzfU_mpdTNg_18); fill-rule: nonzero; opacity: 1;" x="-4" y="-1.5" rx="0" ry="0" width="8" height="3" />
</g>
<g transform="matrix(1 0 0 1 -9.5 -10.5)" >
<rect style="stroke: none; stroke-width: 1; stroke-dasharray: none; stroke-linecap: butt; stroke-dashoffset: 0; stroke-linejoin: miter; stroke-miterlimit: 4; fill: rgb(169,169,169); fill-rule: nonzero; opacity: 1;" x="-1.5" y="-0.5" rx="0" ry="0" width="3" height="1" />
</g>
<g transform="matrix(1 0 0 1 5.5 -10.5)" >
<rect style="stroke: none; stroke-width: 1; stroke-dasharray: none; stroke-linecap: butt; stroke-dashoffset: 0; stroke-linejoin: miter; stroke-miterlimit: 4; fill: rgb(169,169,169); fill-rule: nonzero; opacity: 1;" x="-1.5" y="-0.5" rx="0" ry="0" width="3" height="1" />
</g>
<g transform="matrix(1 0 0 1 -1.5 -10.5)" >
<rect style="stroke: none; stroke-width: 1; stroke-dasharray: none; stroke-linecap: butt; stroke-dashoffset: 0; stroke-linejoin: miter; stroke-miterlimit: 4; fill: rgb(169,169,169); fill-rule: nonzero; opacity: 1;" x="-1.5" y="-0.5" rx="0" ry="0" width="3" height="1" />
</g>
<g transform="matrix(1 0 0 1 14 -8.4)" >
<path style="stroke: none; stroke-width: 1; stroke-dasharray: none; stroke-linecap: butt; stroke-dashoffset: 0; stroke-linejoin: miter; stroke-miterlimit: 4; fill: rgb(70,70,69); fill-rule: nonzero; opacity: 1;" transform=" translate(-38, -15.6)" d="M 40 20.193 L 36.836 19.139000000000003 C 36.336 18.971000000000004 36 18.505000000000003 36 17.979000000000003 L 36 11 L 40 11 L 40 20.193 z M 37 12 L 37 17.979 C 37 18.075 37.062 18.16 37.153 18.189999999999998 L 39 18.807 L 39 12 L 37 12 z" stroke-linecap="round" />
</g>
<g transform="matrix(1 0 0 1 14.5 -9.28)" >
<linearGradient id="SVGID_xYakGh1tLx1ZzfU_mpdTNh_19" gradientUnits="userSpaceOnUse" gradientTransform="matrix(1 0 0 1 0 0)" x1="38.5" y1="9.216" x2="38.5" y2="14.216">
<stop offset="0%" style="stop-color:rgb(246,131,129);stop-opacity: 1"/>
<stop offset="100%" style="stop-color:rgb(229,30,37);stop-opacity: 1"/>
</linearGradient>
<path style="stroke: none; stroke-width: 1; stroke-dasharray: none; stroke-linecap: butt; stroke-dashoffset: 0; stroke-linejoin: miter; stroke-miterlimit: 4; fill: url(#SVGID_xYakGh1tLx1ZzfU_mpdTNh_19); fill-rule: nonzero; opacity: 1;" transform=" translate(-38.5, -14.72)" d="M 39.285 9.971 L 36.855999999999995 8.514 C 36.479 8.288 36 8.559 36 8.998 L 36 14 L 39 14.6 L 39 21 L 41 21 L 41 15 L 41 13 L 41 13 C 41 11.759 40.349 10.609 39.285 9.971 z" stroke-linecap="round" />
</g>
<g transform="matrix(1 0 0 1 -2 5.5)" >
<polygon style="stroke: none; stroke-width: 1; stroke-dasharray: none; stroke-linecap: butt; stroke-dashoffset: 0; stroke-linejoin: miter; stroke-miterlimit: 4; fill: rgb(209,209,209); fill-rule: nonzero; opacity: 1;" points="-10.6,-0.5 -10.5,0.5 10.5,0.5 10.6,-0.5 " />
</g>
<g transform="matrix(1 0 0 1 3.5 10)" >
<linearGradient id="SVGID_xYakGh1tLx1ZzfU_mpdTNi_20" gradientUnits="userSpaceOnUse" gradientTransform="matrix(1 0 0 1 -27.5 -34)" x1="29" y1="34" x2="44.001" y2="34">
<stop offset="0.7000000000000001%" style="stop-color:rgb(0,0,0);stop-opacity: 0"/>
<stop offset="89.3%" style="stop-color:rgb(0,0,0);stop-opacity: 0.8"/>
</linearGradient>
<polygon style="stroke: none; stroke-width: 1; stroke-dasharray: none; stroke-linecap: butt; stroke-dashoffset: 0; stroke-linejoin: miter; stroke-miterlimit: 4; fill: url(#SVGID_xYakGh1tLx1ZzfU_mpdTNi_20); fill-rule: nonzero; opacity: 1;" points="-5.5,-10 -5.5,10 3.5,10 5.5,-10 " />
</g>
<g transform="matrix(1 0 0 1 -2 19.5)" >
<linearGradient id="SVGID_xYakGh1tLx1ZzfU_mpdTNj_21" gradientUnits="userSpaceOnUse" gradientTransform="matrix(1 0 0 1 -22 -43.5)" x1="22.133" y1="44.728" x2="21.72" y2="40.908">
<stop offset="0%" style="stop-color:rgb(153,153,153);stop-opacity: 1"/>
<stop offset="100%" style="stop-color:rgb(255,255,255);stop-opacity: 1"/>
</linearGradient>
<rect style="stroke: none; stroke-width: 1; stroke-dasharray: none; stroke-linecap: butt; stroke-dashoffset: 0; stroke-linejoin: miter; stroke-miterlimit: 4; fill: url(#SVGID_xYakGh1tLx1ZzfU_mpdTNj_21); fill-rule: nonzero; opacity: 1;" x="-10" y="-0.5" rx="0" ry="0" width="20" height="1" />
</g>
</g>
</g>
</svg>